<svg width="64" height="64" xmlns="http://www.w3.org/2000/svg">
 <title/>

 <g>
  <title>background</title>
  <rect fill="none" id="canvas_background" height="64" width="64" y="-1" x="-1"/>
 </g>
 <g>
  <title fill="#ffffff">Layer 1</title>
  <path fill="#ffffff" id="svg_1" d="m37,13.11a19.52,19.52 0 0 0 -21.94,28.65a19,19 0 0 0 11.77,9a19.64,19.64 0 0 0 5.18,0.7a19.4,19.4 0 0 0 9.75,-2.64a19.08,19.08 0 0 0 9,-11.78a19.5,19.5 0 0 0 -13.76,-23.93zm11.79,23.37a17.11,17.11 0 0 1 -8,10.57a17.45,17.45 0 0 1 -13.41,1.74a17.11,17.11 0 0 1 -10.57,-8a17.55,17.55 0 0 1 15.09,-26.37a17.17,17.17 0 0 1 4.57,0.62a17.51,17.51 0 0 1 12.32,21.44z"/>
  <path fill="#ffffff" id="svg_2" d="m32,7.8a1,1 0 0 0 1,-1l0,-2.87a1,1 0 1 0 -2,0l0,2.87a1,1 0 0 0 1,1z"/>
  <path fill="#ffffff" id="svg_3" d="m44.06,11.08a1.06,1.06 0 0 0 0.45,0.11a1,1 0 0 0 0.9,-0.55a27.84,27.84 0 0 1 1.47,-2.45a1,1 0 0 0 -0.31,-1.38a1,1 0 0 0 -1.38,0.3a30.23,30.23 0 0 0 -1.57,2.63a1,1 0 0 0 0.44,1.34z"/>
  <path fill="#ffffff" id="svg_4" d="m53.82,20.32a1,1 0 0 0 0.55,-0.17s0.52,-0.34 2.29,-1.31a1,1 0 1 0 -1,-1.75c-1.84,1 -2.38,1.36 -2.44,1.39a1,1 0 0 0 0.56,1.84l0.04,0z"/>
  <path fill="#ffffff" id="svg_5" d="m60.07,31l-2.87,0a1,1 0 0 0 0,2l2.87,0a1,1 0 0 0 0,-2z"/>
  <path fill="#ffffff" id="svg_6" d="m56.72,45.19c-1.83,-1.16 -2.34,-1.5 -2.35,-1.51a1,1 0 1 0 -1.11,1.67s0.51,0.34 2.38,1.53a1.09,1.09 0 0 0 0.54,0.16a1,1 0 0 0 0.54,-1.85z"/>
  <path fill="#ffffff" id="svg_7" d="m45.35,53.26a1,1 0 1 0 -1.67,1.11s0.35,0.52 1.51,2.35a1,1 0 0 0 0.85,0.46a0.94,0.94 0 0 0 0.53,-0.16a1,1 0 0 0 0.31,-1.38c-1.19,-1.87 -1.53,-2.38 -1.53,-2.38z"/>
  <path fill="#ffffff" id="svg_8" d="m32,56.2a1,1 0 0 0 -1,1l0,2.87a1,1 0 0 0 2,0l0,-2.87a1,1 0 0 0 -1,-1z"/>
  <path fill="#ffffff" id="svg_9" d="m18.48,53.26c0,0.06 -0.39,0.6 -1.39,2.44a1,1 0 1 0 1.75,1c1,-1.77 1.31,-2.29 1.31,-2.29a1,1 0 0 0 -1.67,-1.11l0,-0.04z"/>
  <path fill="#ffffff" id="svg_10" d="m9.74,43.62a30.23,30.23 0 0 0 -2.63,1.57a1,1 0 0 0 0.54,1.81a1.09,1.09 0 0 0 0.54,-0.16c1.76,-1.13 2.44,-1.47 2.44,-1.47a1,1 0 0 0 -0.89,-1.79l0,0.04z"/>
  <path fill="#ffffff" id="svg_11" d="m7.8,32a1,1 0 0 0 -1,-1l-2.87,0a1,1 0 1 0 0,2l2.87,0a1,1 0 0 0 1,-1z"/>
  <path fill="#ffffff" id="svg_12" d="m7.17,18.84c1.88,1 2.57,1.37 2.57,1.37a1,1 0 0 0 0.89,-1.79s-0.68,-0.34 -2.5,-1.33a1,1 0 1 0 -1,1.75l0.04,0z"/>
  <path fill="#ffffff" id="svg_13" d="m18.42,10.63a1,1 0 0 0 0.9,0.56a1,1 0 0 0 0.89,-1.45s-0.34,-0.69 -1.37,-2.57a1,1 0 1 0 -1.75,1c0.99,1.83 1.33,2.45 1.33,2.46z"/>
 </g>
</svg>
