<svg width="64" height="64" xmlns="http://www.w3.org/2000/svg">
 <title/>

 <g>
  <title>background</title>
  <rect fill="none" id="canvas_background" height="64" width="64" y="-1" x="-1"/>
 </g>
 <g>
  <title fill="#ffffff">Layer 1</title>
  <path fill="#ffffff" id="svg_1" d="m39,12.58a1,1 0 0 0 1,-1l0,-2.14a1,1 0 1 0 -2,0l0,2.14a1,1 0 0 0 1,1z"/>
  <path fill="#ffffff" id="svg_2" d="m47.92,15a0.91,0.91 0 0 0 0.45,0.11a1,1 0 0 0 0.89,-0.55s0.26,-0.5 1.09,-1.81a1,1 0 1 0 -1.69,-1.07a21.44,21.44 0 0 0 -1.18,2a1,1 0 0 0 0.44,1.32z"/>
  <path fill="#ffffff" id="svg_3" d="m55.33,21.94a1,1 0 0 0 0.54,-0.17s0.4,-0.25 1.7,-1a1,1 0 1 0 -1,-1.76c-1.39,0.76 -1.8,1 -1.84,1.06a1,1 0 0 0 0.56,1.83l0.04,0.04z"/>
  <path fill="#ffffff" id="svg_4" d="m60,29.42l-2.15,0a1,1 0 0 0 0,2l2.15,0a1,1 0 0 0 0,-2z"/>
  <path fill="#ffffff" id="svg_5" d="m57.63,40.07l-1.75,-1.13a1,1 0 1 0 -1.11,1.67l1.79,1.15a1,1 0 0 0 1.38,-0.31a1,1 0 0 0 -0.31,-1.38z"/>
  <path fill="#ffffff" id="svg_6" d="m20.33,20.81c1.42,0.77 1.93,1 1.93,1a1.06,1.06 0 0 0 0.45,0.11a1,1 0 0 0 0.89,-0.55a1,1 0 0 0 -0.44,-1.37s-0.52,-0.25 -1.87,-1a1,1 0 0 0 -1.36,0.4a1,1 0 0 0 0.4,1.41z"/>
  <path fill="#ffffff" id="svg_7" d="m28.64,14.56a1,1 0 0 0 0.9,0.55a1,1 0 0 0 0.46,-0.11a1,1 0 0 0 0.45,-1.34s-0.26,-0.52 -1,-1.93a1,1 0 1 0 -1.75,1c0.68,1.27 0.93,1.82 0.94,1.83z"/>
  <path fill="#ffffff" id="svg_8" d="m50.36,42.88a10.65,10.65 0 0 0 -0.74,-2.19a14.29,14.29 0 0 0 3.63,-6.46a14.58,14.58 0 0 0 -1.45,-11.23a14.81,14.81 0 0 0 -26.9,2.64a14.83,14.83 0 0 0 -14.49,13.06a8.46,8.46 0 0 0 1.05,16.86l38.22,0a6.41,6.41 0 0 0 6.14,-6.43a6.31,6.31 0 0 0 -5.46,-6.25zm-8.07,-24.88a12.9,12.9 0 0 1 7.77,6a12.94,12.94 0 0 1 -1.48,14.89a10.67,10.67 0 0 0 -6,-4.1l-0.1,0c-0.33,-0.08 -0.66,-0.14 -1,-0.19l-0.27,0a8.62,8.62 0 0 0 -1.21,-0.12c-0.39,0 -0.75,0 -1.13,0a14.63,14.63 0 0 0 -11.87,-8.76a12.74,12.74 0 0 1 15.29,-7.72zm7.34,35.58l-38.17,0a6.46,6.46 0 0 1 -0.13,-12.91l0.95,0l0.05,-0.93a13,13 0 0 1 12.91,-12.11a12.1,12.1 0 0 1 1.21,0.06l0.27,0c0.35,0 0.69,0.09 1,0.16l0.13,0a12.93,12.93 0 0 1 10.29,12.68a10.29,10.29 0 0 1 -0.56,3.8a1,1 0 0 0 0.56,1.3a1,1 0 0 0 0.37,0.07a1,1 0 0 0 0.93,-0.62a12.39,12.39 0 0 0 0.7,-4.55a15.06,15.06 0 0 0 -0.57,-4.05l0.43,0a7.17,7.17 0 0 1 1,0.07l0.2,0a8.57,8.57 0 0 1 6.29,4.45l0.47,0.86a9,9 0 0 1 0.56,2.14l0.11,0.87l0.88,0a4.37,4.37 0 0 1 4.31,4.31a4.41,4.41 0 0 1 -4.19,4.38l0,0.02z"/>
 </g>
</svg>
