<svg width="64" height="64" xmlns="http://www.w3.org/2000/svg">
 <title/>

 <g>
  <title>background</title>
  <rect fill="none" id="canvas_background" height="64" width="64" y="-1" x="-1"/>
 </g>
 <g>
  <title fill="#ffffff">Layer 1</title>
  <path fill="#ffffff" id="svg_1" d="m58.18,37.35a12.28,12.28 0 0 0 0.93,-4.58a12,12 0 0 0 -12,-12l-0.63,0a9,9 0 0 0 -8.6,-6.64a8.68,8.68 0 0 0 -6.93,3.3a16.4,16.4 0 0 0 -3.49,-0.34c-0.53,0 -1.05,0 -1.56,0.07a16.32,16.32 0 0 0 -10.37,5l-0.09,0.1c-0.24,0.25 -0.47,0.52 -0.69,0.79s-0.24,0.29 -0.35,0.44s-0.26,0.35 -0.39,0.53s-0.37,0.54 -0.54,0.82l-0.15,0.24a15.91,15.91 0 0 0 -2,5.59s0,0.07 0,0.11c0,0.22 -0.08,0.45 -0.11,0.68a9.23,9.23 0 0 0 1,18.39l42.03,0a6.94,6.94 0 0 0 3.94,-12.52l0,0.02zm-4,10.5l-42,0a7.23,7.23 0 0 1 -0.09,-14.46l0.91,0l0.06,-0.9a14.41,14.41 0 0 1 28.78,1a14.72,14.72 0 0 1 -0.66,4.32a1,1 0 0 0 0.66,1.25a1,1 0 0 0 0.29,0.05a1,1 0 0 0 1,-0.71a16.68,16.68 0 0 0 0.75,-4.91a17.15,17.15 0 0 0 -0.19,-2.4a8.58,8.58 0 0 1 3,0.81a8,8 0 0 1 3.68,10.63a1,1 0 0 0 0.47,1.33a0.94,0.94 0 0 0 0.43,0.1a1,1 0 0 0 0.9,-0.57a10,10 0 0 0 -4.63,-13.3a10.41,10.41 0 0 0 -4.3,-1a16.45,16.45 0 0 0 -10.24,-11a6.77,6.77 0 0 1 4.83,-2a7,7 0 0 1 6.86,5.91l0.17,1.08l1.06,-0.26a4.84,4.84 0 0 1 1.17,-0.09a10,10 0 0 1 10,10a10.68,10.68 0 0 1 -1.09,4.59l-0.39,0.86l0.83,0.44a4.93,4.93 0 0 1 -2.25,9.25l-0.01,-0.02z"/>
 </g>
</svg>
