<svg width="64" height="64" xmlns="http://www.w3.org/2000/svg">
 <title/>

 <g>
  <title>background</title>
  <rect fill="none" id="canvas_background" height="64" width="64" y="-1" x="-1"/>
 </g>
 <g>
  <title fill="#ffffff">Layer 1</title>
  <path fill="#ffffff" id="svg_1" d="m58.18,33.09a12.32,12.32 0 0 0 0.93,-4.58a12,12 0 0 0 -12,-12l-0.63,0a9,9 0 0 0 -8.6,-6.64a8.68,8.68 0 0 0 -6.93,3.3a16.4,16.4 0 0 0 -3.49,-0.34c-0.53,0 -1.05,0 -1.56,0.07a16.32,16.32 0 0 0 -10.37,5l-0.09,0.1c-0.24,0.25 -0.47,0.52 -0.69,0.79l-0.35,0.43c-0.14,0.18 -0.26,0.36 -0.39,0.54s-0.37,0.54 -0.54,0.81l-0.15,0.25a15.84,15.84 0 0 0 -2,5.59s0,0.07 0,0.1c0,0.23 -0.08,0.46 -0.11,0.69a9.23,9.23 0 0 0 1,18.39l42.03,0a6.94,6.94 0 0 0 3.94,-12.52l0,0.02zm-4,10.5l-42,0a7.23,7.23 0 0 1 -0.09,-14.46l0.91,0l0.06,-0.91a14.41,14.41 0 0 1 28.78,1a14.72,14.72 0 0 1 -0.66,4.32a1,1 0 0 0 0.66,1.25a1,1 0 0 0 0.29,0.05a1,1 0 0 0 1,-0.71a16.73,16.73 0 0 0 0.75,-4.91a17.41,17.41 0 0 0 -0.19,-2.41a8.83,8.83 0 0 1 3,0.82a8,8 0 0 1 3.68,10.63a1,1 0 0 0 0.47,1.33a0.94,0.94 0 0 0 0.43,0.1a1,1 0 0 0 0.9,-0.57a10,10 0 0 0 -4.63,-13.3a10.41,10.41 0 0 0 -4.3,-1a16.43,16.43 0 0 0 -10.24,-10.99a6.77,6.77 0 0 1 4.83,-2a7,7 0 0 1 6.83,5.9l0.17,1.08l1.06,-0.26a4.84,4.84 0 0 1 1.17,-0.09a10,10 0 0 1 10,10a10.68,10.68 0 0 1 -1.06,4.6l-0.39,0.86l0.83,0.44a4.93,4.93 0 0 1 -2.25,9.25l-0.01,-0.02z"/>
  <path fill="#ffffff" id="svg_2" d="m26.47,48.16a1,1 0 0 0 -1.27,0.61l-1.42,4a1,1 0 0 0 0.61,1.28a1.26,1.26 0 0 0 0.33,0.05a1,1 0 0 0 0.94,-0.66l1.42,-4a1,1 0 0 0 -0.61,-1.28z"/>
  <path fill="#ffffff" id="svg_3" d="m39.64,48.17a1,1 0 0 0 -1.29,0.58l-1.54,4a1,1 0 0 0 0.57,1.29a1.13,1.13 0 0 0 0.36,0.06a1,1 0 0 0 0.94,-0.64l1.53,-4a1,1 0 0 0 -0.57,-1.29z"/>
 </g>
</svg>
