<svg width="64" height="64" xmlns="http://www.w3.org/2000/svg">
 <title/>

 <g>
  <title>background</title>
  <rect fill="none" id="canvas_background" height="64" width="64" y="-1" x="-1"/>
 </g>
 <g>
  <title fill="#ffffff">Layer 1</title>
  <path fill="#ffffff" id="svg_1" d="m58.18,31.32a12.37,12.37 0 0 0 0.93,-4.59a12,12 0 0 0 -12,-12l-0.64,0a9,9 0 0 0 -8.6,-6.64a8.7,8.7 0 0 0 -6.93,3.3a16.4,16.4 0 0 0 -3.49,-0.34c-0.53,0 -1.05,0 -1.56,0.07a16.27,16.27 0 0 0 -10.36,5l-0.11,0.1c-0.23,0.26 -0.46,0.52 -0.67,0.79a4.94,4.94 0 0 0 -0.36,0.44a6.42,6.42 0 0 0 -0.39,0.55c-0.19,0.27 -0.38,0.54 -0.55,0.82c0,0.08 -0.1,0.16 -0.14,0.24a15.71,15.71 0 0 0 -2.05,5.6l0,0.08c0,0.24 -0.08,0.47 -0.11,0.7a9.23,9.23 0 0 0 1,18.39l10.08,0a1,1 0 1 0 0,-2l-10.06,0a7.23,7.23 0 0 1 -0.09,-14.45l0.91,0l0.06,-0.9a14.41,14.41 0 0 1 28.78,1a14.72,14.72 0 0 1 -0.66,4.32a1,1 0 0 0 0.66,1.2a1,1 0 0 0 0.29,0.05a1,1 0 0 0 1,-0.71a16.68,16.68 0 0 0 0.75,-4.91a17.15,17.15 0 0 0 -0.19,-2.4a8.86,8.86 0 0 1 3,0.81a8,8 0 0 1 3.67,10.63a1,1 0 0 0 0.48,1.34a1.07,1.07 0 0 0 0.43,0.09a1,1 0 0 0 0.9,-0.57a10,10 0 0 0 -4.63,-13.29a10.28,10.28 0 0 0 -4.3,-1a16.45,16.45 0 0 0 -10.23,-10.99a6.77,6.77 0 0 1 4.83,-2a7,7 0 0 1 6.86,5.95l0.17,1.09l1.06,-0.27a4.88,4.88 0 0 1 1.18,-0.09a10,10 0 0 1 10,10a10.68,10.68 0 0 1 -1.1,4.55l-0.39,0.86l0.83,0.45a4.93,4.93 0 0 1 -2.25,9.24l-22.25,0a1,1 0 1 0 0,2l22.3,0a6.93,6.93 0 0 0 3.94,-12.51z"/>
  <path fill="#ffffff" id="svg_2" d="m42.6,46.4a1,1 0 0 0 -1.29,0.57l-1.54,4a1,1 0 0 0 0.57,1.29a0.92,0.92 0 0 0 0.36,0.07a1,1 0 0 0 0.94,-0.65l1.54,-4a1,1 0 0 0 -0.58,-1.28z"/>
  <path fill="#ffffff" id="svg_3" d="m34.54,46.4a1,1 0 0 0 -1.29,0.58l-2.84,7.58a1,1 0 0 0 0.59,1.29a1,1 0 0 0 1.29,-0.59l2.84,-7.58a1,1 0 0 0 -0.59,-1.28z"/>
  <path fill="#ffffff" id="svg_4" d="m17.36,46.39a1,1 0 0 0 -1.28,0.6l-2.72,7.58a1,1 0 0 0 0.6,1.28a1,1 0 0 0 0.34,0.06a1,1 0 0 0 0.94,-0.66l2.76,-7.58a1,1 0 0 0 -0.64,-1.28z"/>
  <path fill="#ffffff" id="svg_5" d="m50.05,46.4a1,1 0 0 0 -1.29,0.58l-2.84,7.58a1,1 0 0 0 0.59,1.29a1,1 0 0 0 0.35,0.06a1,1 0 0 0 0.93,-0.65l2.85,-7.58a1,1 0 0 0 -0.59,-1.28z"/>
  <path fill="#ffffff" id="svg_6" d="m30.83,36.54a1.07,1.07 0 0 0 -1,-1.08l-7,0l4.64,-10.32a0.93,0.93 0 0 0 -0.59,-1.27a1,1 0 0 0 -1.38,0.49l-5.3,11.79a1.08,1.08 0 0 0 0.59,1.38a1,1 0 0 0 0.39,0.07l0,0l7.1,0l-5.11,13.4a1,1 0 0 0 0.59,1.27a1.07,1.07 0 0 0 1.37,-0.59l5.56,-14.62a1.11,1.11 0 0 0 0.14,-0.52z"/>
 </g>
</svg>
