<svg width="64" height="64" xmlns="http://www.w3.org/2000/svg">
 <title/>

 <g>
  <title>background</title>
  <rect fill="none" id="canvas_background" height="64" width="64" y="-1" x="-1"/>
 </g>
 <g>
  <title fill="#ffffff">Layer 1</title>
  <path fill="#ffffff" id="svg_1" d="m58.18,34a12.32,12.32 0 0 0 0.93,-4.58a12,12 0 0 0 -12,-12l-0.64,0a9,9 0 0 0 -8.6,-6.64a8.68,8.68 0 0 0 -6.93,3.31a16.37,16.37 0 0 0 -3.49,-0.35c-0.53,0 -1.05,0 -1.56,0.08a16.21,16.21 0 0 0 -10.36,5l-0.11,0.11c-0.23,0.25 -0.46,0.51 -0.67,0.78s-0.25,0.29 -0.36,0.44s-0.26,0.35 -0.38,0.53s-0.38,0.54 -0.55,0.82c0,0.08 -0.1,0.16 -0.14,0.24a15.83,15.83 0 0 0 -2.05,5.61l0,0.08c0,0.23 -0.08,0.46 -0.11,0.7a9.23,9.23 0 0 0 1,18.39l0.12,0a1,1 0 0 0 0,-2l-0.12,0a7.23,7.23 0 0 1 -0.08,-14.52l0.15,0l0.18,0l0.18,-0.11l0.13,-0.08c0.06,-0.06 0.1,-0.13 0.15,-0.19l0.07,-0.11a0.69,0.69 0 0 0 0.06,-0.31a0.32,0.32 0 0 0 0,-0.09a14.41,14.41 0 0 1 28.78,1a14.77,14.77 0 0 1 -0.66,4.32a1,1 0 0 0 0.66,1.25a1,1 0 0 0 0.29,0a1,1 0 0 0 1,-0.7a16.73,16.73 0 0 0 0.75,-4.91a17.41,17.41 0 0 0 -0.19,-2.41a8.83,8.83 0 0 1 3,0.82a8,8 0 0 1 3.67,10.63a1,1 0 0 0 0.48,1.33a0.94,0.94 0 0 0 0.43,0.1a1,1 0 0 0 0.9,-0.57a10,10 0 0 0 -4.63,-13.3a10.55,10.55 0 0 0 -4.3,-1a16.42,16.42 0 0 0 -10.18,-10.95a6.7,6.7 0 0 1 4.82,-2a7,7 0 0 1 6.83,5.91a1,1 0 0 0 1.23,0.81a4.88,4.88 0 0 1 1.18,-0.09a10,10 0 0 1 10,10a10.68,10.68 0 0 1 -1.06,4.65a1,1 0 0 0 0.44,1.3a4.93,4.93 0 0 1 -2.24,9.2l-2.37,0a1,1 0 0 0 0,2l2.41,0a6.94,6.94 0 0 0 3.94,-12.5z"/>
  <path fill="#ffffff" id="svg_2" d="m29.93,44.5l-4.34,0l3,-3a1,1 0 0 0 0,-1.42a1,1 0 0 0 -1.41,0l-3,3l0,-4.33a1,1 0 0 0 -2,0l0,4.33l-3,-3a1,1 0 0 0 -1.41,0a1,1 0 0 0 0,1.42l3,3l-4.34,0a1,1 0 0 0 0,2l4.34,0l-3,3a1,1 0 0 0 0.7,1.7a1,1 0 0 0 0.71,-0.29l3,-3l0,4.34a1,1 0 0 0 2,0l0,-4.34l3,3a1,1 0 0 0 1.41,0a1,1 0 0 0 0,-1.41l-3,-3l4.34,0a1,1 0 1 0 0,-2z"/>
  <path fill="#ffffff" id="svg_3" d="m47.57,44.5l-4.34,0l3,-3a1,1 0 0 0 0,-1.42a1,1 0 0 0 -1.41,0l-3,3l0,-4.33a1,1 0 0 0 -2,0l0,4.33l-3,-3a1,1 0 0 0 -1.41,0a1,1 0 0 0 0,1.42l3,3l-4.34,0a1,1 0 1 0 0,2l4.34,0l-3,3a1,1 0 0 0 0.7,1.7a1,1 0 0 0 0.71,-0.29l3,-3l0,4.34a1,1 0 0 0 2,0l0,-4.34l3,3a1,1 0 0 0 1.41,0a1,1 0 0 0 0,-1.41l-3,-3l4.34,0a1,1 0 0 0 0,-2z"/>
 </g>
</svg>
