<svg width="64" height="64" xmlns="http://www.w3.org/2000/svg">
 <title/>

 <g>
  <title>background</title>
  <rect fill="none" id="canvas_background" height="64" width="64" y="-1" x="-1"/>
 </g>
 <g>
  <title fill="#ffffff">Layer 1</title>
  <path fill="#ffffff" id="svg_1" d="m58.18,29.39a12.32,12.32 0 0 0 0.93,-4.58a12,12 0 0 0 -12,-12l-0.64,0a9,9 0 0 0 -8.6,-6.64a8.68,8.68 0 0 0 -6.93,3.3a16.4,16.4 0 0 0 -3.49,-0.34c-0.52,0 -1.05,0 -1.56,0.07a16.24,16.24 0 0 0 -10.35,5l-0.12,0.12c-0.23,0.25 -0.45,0.51 -0.67,0.78l-0.37,0.45c-0.13,0.17 -0.25,0.34 -0.37,0.52s-0.38,0.55 -0.56,0.83l-0.13,0.23a15.9,15.9 0 0 0 -2.05,5.6s0,0.07 0,0.1c0,0.23 -0.08,0.46 -0.11,0.69a9.23,9.23 0 0 0 1,18.39l42.08,0a6.94,6.94 0 0 0 3.94,-12.52zm-4,10.52l-42,0a7.23,7.23 0 0 1 -0.09,-14.46l0.91,0l0.06,-0.91a14.41,14.41 0 0 1 28.78,1a14.72,14.72 0 0 1 -0.66,4.32a1,1 0 0 0 0.66,1.25a1,1 0 0 0 0.29,0.05a1,1 0 0 0 1,-0.71a16.73,16.73 0 0 0 0.75,-4.91a17.41,17.41 0 0 0 -0.19,-2.41a8.89,8.89 0 0 1 3,0.82a8,8 0 0 1 3.68,10.63a1,1 0 0 0 0.47,1.33a0.94,0.94 0 0 0 0.43,0.1a1,1 0 0 0 0.9,-0.57a10,10 0 0 0 -4.63,-13.3a10.41,10.41 0 0 0 -4.3,-1a16.42,16.42 0 0 0 -10.24,-11.01a6.73,6.73 0 0 1 4.82,-2a7,7 0 0 1 6.83,5.9l0.17,1.08l1.06,-0.26a4.88,4.88 0 0 1 1.18,-0.09a10,10 0 0 1 10,10a10.68,10.68 0 0 1 -1.06,4.6l-0.39,0.86l0.83,0.44a4.93,4.93 0 0 1 -2.25,9.25l-0.01,0z"/>
  <path fill="#ffffff" id="svg_2" d="m55.32,44.49a4.08,4.08 0 0 0 -2.92,1.25a2.1,2.1 0 0 1 -1.59,0.75a2.13,2.13 0 0 1 -1.59,-0.75a4,4 0 0 0 -5.83,0a2,2 0 0 1 -3.17,0a4,4 0 0 0 -5.83,0a2.06,2.06 0 0 1 -3.18,0a4,4 0 0 0 -5.82,0a2.06,2.06 0 0 1 -3.18,0a4,4 0 0 0 -2.91,-1.25a4.1,4.1 0 0 0 -2.92,1.25a2,2 0 0 1 -3.16,0a4.1,4.1 0 0 0 -2.92,-1.25a1,1 0 0 0 0,2a2.12,2.12 0 0 1 1.59,0.75a4,4 0 0 0 5.82,0a2,2 0 0 1 3.17,0a4,4 0 0 0 5.83,0a2.06,2.06 0 0 1 3.18,0a4,4 0 0 0 5.83,0a2,2 0 0 1 3.17,0a4,4 0 0 0 5.83,0a2.06,2.06 0 0 1 3.18,0a4,4 0 0 0 5.83,0a2.13,2.13 0 0 1 1.59,-0.75a1,1 0 0 0 0,-2z"/>
  <path fill="#ffffff" id="svg_3" d="m55.32,49.16a4.12,4.12 0 0 0 -2.92,1.25a2.1,2.1 0 0 1 -1.59,0.75a2.13,2.13 0 0 1 -1.59,-0.75a4,4 0 0 0 -5.83,0a2,2 0 0 1 -3.17,0a4,4 0 0 0 -5.83,0a2.06,2.06 0 0 1 -3.18,0a4,4 0 0 0 -5.82,0a2.06,2.06 0 0 1 -3.18,0a4,4 0 0 0 -5.83,0a2.1,2.1 0 0 1 -1.58,0.75a2.12,2.12 0 0 1 -1.58,-0.74a4.06,4.06 0 0 0 -2.92,-1.26a1,1 0 1 0 0,2a2.12,2.12 0 0 1 1.59,0.75a4,4 0 0 0 5.82,0a2,2 0 0 1 3.17,0a4,4 0 0 0 5.83,0a2.06,2.06 0 0 1 3.18,0a4,4 0 0 0 5.83,0a2,2 0 0 1 3.17,0a4,4 0 0 0 5.83,0a2.06,2.06 0 0 1 3.18,0a4,4 0 0 0 5.83,0a2.13,2.13 0 0 1 1.59,-0.75a1,1 0 0 0 0,-2z"/>
  <path fill="#ffffff" id="svg_4" d="m55.32,53.83a4.08,4.08 0 0 0 -2.92,1.26a2.09,2.09 0 0 1 -1.59,0.74a2.12,2.12 0 0 1 -1.59,-0.74a4,4 0 0 0 -5.83,0a2.07,2.07 0 0 1 -3.17,0a4,4 0 0 0 -5.83,0a2.08,2.08 0 0 1 -3.18,0a4,4 0 0 0 -5.82,0a2.08,2.08 0 0 1 -3.18,0a4,4 0 0 0 -5.83,0a2.06,2.06 0 0 1 -3.16,0a4.06,4.06 0 0 0 -2.92,-1.26a1,1 0 1 0 0,2a2.12,2.12 0 0 1 1.59,0.75a4,4 0 0 0 5.82,0a2,2 0 0 1 3.17,0a4,4 0 0 0 5.83,0a2.06,2.06 0 0 1 3.18,0a4,4 0 0 0 5.83,0a2,2 0 0 1 3.17,0a4,4 0 0 0 5.83,0a2.06,2.06 0 0 1 3.18,0a4,4 0 0 0 5.83,0a2.13,2.13 0 0 1 1.59,-0.75a1,1 0 1 0 0,-2z"/>
 </g>
</svg>
